<?xml version="1.0" standalone="no"?>
<!DOCTYPE svg PUBLIC "-//W3C//DTD SVG 20010904//EN"
 "http://www.w3.org/TR/2001/REC-SVG-20010904/DTD/svg10.dtd">
<svg version="1.0" xmlns="http://www.w3.org/2000/svg"
 width="2000.000000pt" height="2000.000000pt" viewBox="0 0 2000.000000 2000.000000"
 preserveAspectRatio="xMidYMid meet">
<metadata>
Created by potrace 1.11, written by Peter Selinger 2001-2013
</metadata>
<g transform="translate(0.000000,2000.000000) scale(0.100000,-0.100000)"
fill="#000000" stroke="none">
<path d="M9789 17016 c-2 -2 -58 -6 -124 -10 -122 -6 -138 -8 -305 -26 -94
-11 -118 -14 -192 -25 -21 -3 -55 -7 -75 -10 -21 -3 -49 -8 -63 -11 -14 -3
-36 -7 -50 -9 -124 -18 -375 -80 -570 -141 -231 -73 -372 -131 -595 -245 -412
-209 -722 -457 -1049 -839 -167 -195 -367 -530 -468 -784 -103 -261 -188 -599
-213 -851 -4 -38 -9 -78 -11 -88 -12 -64 -17 -376 -17 -1034 l0 -751 -1016 0
c-559 0 -1025 -1 -1036 -1 -20 -1 -20 -7 -19 -1013 1 -557 2 -1015 3 -1018 0
-3 465 -5 1031 -5 1023 0 1031 0 1035 -20 2 -11 3 -1625 2 -3588 l-2 -3567 25
-1 c138 -4 2869 -1 2876 4 6 3 9 1423 9 3586 0 2379 3 3582 10 3584 6 2 650 3
1433 2 782 0 1422 2 1423 5 0 3 2 12 4 20 6 31 34 197 40 240 3 25 8 52 10 60
2 8 7 35 10 60 6 40 47 293 61 375 3 17 19 111 35 210 39 237 36 217 53 321 9
50 18 113 21 140 3 27 8 56 10 64 3 8 7 33 10 55 3 22 10 63 15 90 5 28 12 70
15 95 3 25 8 52 10 60 2 8 7 35 10 60 3 25 8 52 10 60 2 8 7 35 10 60 4 25 7
49 8 54 1 4 -718 9 -1598 10 l-1600 1 1 715 c1 764 3 825 35 993 77 410 291
676 652 811 88 33 249 78 322 90 99 16 167 26 215 30 30 3 87 8 125 12 79 7
553 7 630 0 28 -2 95 -7 150 -11 55 -4 111 -8 125 -10 14 -2 57 -7 95 -11 39
-3 77 -8 86 -9 9 -2 40 -6 70 -10 30 -3 92 -13 139 -21 47 -8 100 -17 119 -20
18 -3 43 -8 55 -10 11 -3 32 -7 46 -10 129 -27 178 -38 260 -60 52 -14 102
-27 110 -29 45 -10 288 -89 370 -119 52 -20 100 -36 106 -36 6 0 43 78 84 173
114 270 250 587 276 645 13 29 24 55 24 57 0 3 10 27 21 53 25 55 7 13 209
487 89 209 171 399 181 422 10 23 19 48 19 56 0 28 -373 165 -835 307 -53 16
-244 67 -285 75 -8 2 -42 10 -75 19 -67 17 -318 70 -410 86 -33 5 -69 12 -80
14 -11 2 -56 9 -100 16 -44 7 -87 13 -95 15 -27 5 -94 14 -140 20 -25 3 -61 7
-80 10 -33 4 -64 8 -155 19 -22 3 -71 8 -110 11 -38 3 -88 8 -110 10 -22 2
-80 7 -130 11 -49 3 -112 8 -140 10 -70 5 -951 15 -956 10z"/>
<path d="M13388 11675 c-2 -2 -25 -6 -52 -9 -244 -33 -494 -185 -639 -388 -72
-100 -132 -233 -153 -334 -20 -100 -25 -312 -10 -384 3 -14 8 -38 12 -55 74
-368 398 -665 792 -726 87 -13 269 -16 353 -6 380 45 692 292 799 632 23 75
25 84 39 185 9 66 6 255 -4 300 -3 14 -8 41 -11 59 -7 43 -49 162 -77 216 -11
22 -43 74 -72 115 -147 209 -387 353 -650 389 -62 8 -319 13 -327 6z"/>
<path d="M11299 8678 c0 -7 -1 -268 -2 -580 l-2 -568 30 -1 c17 0 368 -1 780
-2 l750 -2 1 -1692 1 -1693 -807 0 -807 0 0 -580 0 -580 31 -1 c38 -1 4728 -1
4739 0 4 1 7 262 7 581 l0 580 -730 0 -730 0 -1 23 c0 12 -1 1036 -1 2275 l-1
2252 -1629 0 c-1295 0 -1628 -3 -1629 -12z"/>
</g>
</svg>
